<mxfile host="app.diagrams.net" modified="2020-12-09T18:41:42.706Z" agent="5.0 (X11; Linux x86_64) AppleWebKit/537.36 (KHTML, like Gecko) Chrome/80.0.3987.122 Safari/537.36" etag="2yQV1EdLbDl44-GZIJul" version="14.0.0" type="github">
  <diagram id="saIJt2a8fF6lUq5iMUIm" name="Page-1">
    <mxGraphModel dx="1536" dy="876" grid="1" gridSize="10" guides="1" tooltips="1" connect="1" arrows="1" fold="1" page="1" pageScale="1" pageWidth="1169" pageHeight="827" math="0" shadow="0">
      <root>
        <mxCell id="0" />
        <mxCell id="1" parent="0" />
        <mxCell id="09mGutInpLpsxk74C0XZ-6" value="" style="group" vertex="1" connectable="0" parent="1">
          <mxGeometry x="460" y="374" width="200" height="80" as="geometry" />
        </mxCell>
        <mxCell id="09mGutInpLpsxk74C0XZ-1" value="" style="ellipse;whiteSpace=wrap;html=1;" vertex="1" parent="09mGutInpLpsxk74C0XZ-6">
          <mxGeometry width="200" height="80" as="geometry" />
        </mxCell>
        <mxCell id="09mGutInpLpsxk74C0XZ-2" value="routes.rb" style="text;html=1;strokeColor=none;fillColor=none;align=center;verticalAlign=middle;whiteSpace=wrap;rounded=0;" vertex="1" parent="09mGutInpLpsxk74C0XZ-6">
          <mxGeometry x="40" y="10" width="40" height="20" as="geometry" />
        </mxCell>
        <mxCell id="09mGutInpLpsxk74C0XZ-4" value="resources :articles" style="text;html=1;strokeColor=none;fillColor=none;align=center;verticalAlign=middle;whiteSpace=wrap;rounded=0;" vertex="1" parent="09mGutInpLpsxk74C0XZ-6">
          <mxGeometry x="20" y="30" width="120" height="20" as="geometry" />
        </mxCell>
        <mxCell id="09mGutInpLpsxk74C0XZ-7" value="" style="rounded=0;whiteSpace=wrap;html=1;" vertex="1" parent="1">
          <mxGeometry x="370" y="110" width="360" height="100" as="geometry" />
        </mxCell>
        <mxCell id="09mGutInpLpsxk74C0XZ-9" value="articles_controller.rb/ class ArticlesController" style="text;html=1;strokeColor=none;fillColor=none;align=center;verticalAlign=middle;whiteSpace=wrap;rounded=0;" vertex="1" parent="1">
          <mxGeometry x="500" y="140" width="60" height="20" as="geometry" />
        </mxCell>
      </root>
    </mxGraphModel>
  </diagram>
</mxfile>
